<svg xmlns="http://www.w3.org/2000/svg" xmlns:xlink="http://www.w3.org/1999/xlink" width="288" height="288" viewBox="0 0 288 288">
  <defs>
    <path id="empty-chart-a" d="M0.729,3.198 C0.729,4.581 1.85,5.698 3.229,5.698 L3.229,5.698 C4.609,5.698 5.729,4.581 5.729,3.198 L5.729,3.198 C5.729,1.818 4.609,0.699 3.229,0.699 L3.229,0.699 C1.85,0.699 0.729,1.818 0.729,3.198 L0.729,3.198 Z"/>
    <path id="empty-chart-c" d="M0.729,3.198 C0.729,4.581 1.85,5.698 3.229,5.698 L3.229,5.698 C4.609,5.698 5.729,4.581 5.729,3.198 L5.729,3.198 C5.729,1.818 4.609,0.698 3.229,0.698 L3.229,0.698 C1.85,0.698 0.729,1.818 0.729,3.198 L0.729,3.198 Z"/>
  </defs>
  <g fill="none" fill-rule="evenodd">
    <g fill="#EFF0F0" transform="translate(19 19.009)">
      <path d="M10.5333818 72.7285132C11.8912144 70.2967707 14.9636393 69.4269881 17.3949698 70.7850509 19.8263002 72.1436502 20.6964719 75.2165958 19.3381028 77.6483384 17.9797337 80.0800809 14.9078453 80.9498635 12.4765148 79.5918008 10.0451844 78.2332014 9.17501269 75.1602558 10.5333818 72.7285132M202.533382 171.728513C203.891214 169.296771 206.963639 168.426988 209.39497 169.785051 211.8263 171.14365 212.696472 174.216596 211.338103 176.648338 209.979734 179.080081 206.907845 179.949864 204.476515 178.591801 202.045184 177.233201 201.175013 174.160256 202.533382 171.728513"/>
      <path d="M99.4331414,246.879184 C66.818871,240.119455 38.7882916,221.061504 20.5055663,193.215583 C2.22230452,165.369663 -4.12426201,132.069492 2.63485816,99.4491571 C2.99537319,97.7085187 4.69655344,96.5892303 6.44011567,96.950343 C8.18045902,97.3109192 9.29955773,99.0150706 8.93850623,100.756246 C2.52863499,131.691745 8.54741181,163.272741 25.8870041,189.68065 C43.2255234,216.089095 69.8092144,234.16351 100.740008,240.574467 C108.808678,242.246961 116.924558,243.073281 124.978206,243.073281 C147.795802,243.074355 170.133249,236.441793 189.649343,223.623633 C216.052777,206.282175 234.124665,179.693979 240.534536,148.757942 C246.943871,117.821906 240.925631,86.2414467 223.586038,59.8330015 C206.246983,33.4245563 179.663828,15.350678 148.733034,8.93972036 C117.802777,2.52929927 86.2276693,8.54855965 59.8226264,25.8905543 C47.2099655,34.17522 36.4433346,44.6152939 27.8236994,56.9199542 C26.6278839,58.6267885 25.4647938,60.3845971 24.3671543,62.1461618 C23.4267037,63.6550011 21.4406522,64.1159162 19.9326049,63.174233 C18.4234848,62.2330864 17.9637208,60.2477714 18.9047079,58.738932 C20.0635062,56.8807845 21.2899011,55.0258564 22.5511672,53.2256587 C31.640223,40.2497473 42.9916178,29.2419806 56.2888281,20.5082044 C84.1305663,2.22291687 117.426167,-4.12472534 150.039365,2.63500387 C182.653635,9.39419652 210.684214,28.4526837 228.967476,56.2986043 C247.250738,84.1445249 253.597305,117.444159 246.838184,150.064494 C240.079064,182.684292 221.024343,210.719623 193.183141,229.005447 C172.606425,242.520613 149.049021,249.513751 124.991081,249.514287 C116.497519,249.514824 107.943335,248.642895 99.4331414,246.879184 Z"/>
      <path d="M124.802521,223.802156 C113.506384,223.802156 102.176448,221.850645 91.2274142,217.927234 C39.6571352,199.446634 12.7338519,142.449851 31.2113197,90.8713677 C49.6882511,39.2928846 106.676985,12.365038 158.245655,30.8451011 C209.815397,49.3251641 236.738144,106.322484 218.261749,157.900967 C217.661964,159.575071 215.817006,160.444853 214.145869,159.846039 C212.472049,159.245616 211.601878,157.403029 212.201127,155.729462 C229.480633,107.492747 204.301985,54.1897223 156.074517,36.9067506 C132.711856,28.5340871 107.488144,29.7622995 85.0487661,40.3654912 C62.6099249,50.9686829 45.6421137,69.6762523 37.2719421,93.042873 C19.9924356,141.279052 45.1700107,194.582612 93.3985515,211.865584 C116.761212,220.237711 141.985998,219.008426 164.423766,208.406307 C175.144796,203.340534 184.6625,196.396761 192.714002,187.766543 C193.827736,186.572671 194.925376,185.332118 195.975268,184.078686 C197.117972,182.716868 199.148015,182.538726 200.510139,183.679477 C201.872264,184.821838 202.050912,186.852225 200.909281,188.215117 C199.786427,189.555473 198.612607,190.881878 197.420547,192.159455 C188.811105,201.38795 178.634603,208.812492 167.173766,214.227572 C153.696298,220.596141 139.27838,223.802156 124.802521,223.802156"/>
    </g>
    <path stroke="#979797"/>
    <g transform="translate(53 47)">
      <g transform="translate(0 32.006)">
        <path fill="#FFF" d="M-0.0004,117.4022 C-0.0004,124.5882 5.8986,131.0152 12.3406,131.0152 L166.6016,131.0152 C173.0426,131.0152 178.9416,124.5882 178.9416,117.4022 L178.9416,14.0152 C178.9416,6.8232 173.0426,0.2512 166.6016,0.2512 L134.6096,0.2512 L12.3406,0.2512 C5.8986,0.2512 -0.0004,6.8232 -0.0004,14.0152 L-0.0004,117.4022 Z"/>
        <path fill="#EFF0F0" d="M8.65,125.869335 C8.65,133.012261 14.6178464,139.4027 21.1336449,139.4027 L177.166355,139.4027 C183.683182,139.4027 189.65,133.012261 189.65,125.869335 L189.65,23.0871829 C189.65,15.9370121 183.683182,9.4027 177.166355,9.4027 L144.807366,9.4027 L21.1336449,9.4027 C14.6178464,9.4027 8.65,15.9370121 8.65,23.0871829 L8.65,125.869335 Z"/>
        <path stroke="#425765" stroke-linecap="round" stroke-linejoin="round" stroke-width="4" d="M178.9416,51.4832578 C178.9416,45.232994 178.9416,32.7436414 178.9416,14.0152 C178.9416,6.8232 173.0426,0.2512 166.6016,0.2512 L134.6096,0.2512 L12.3406,0.2512 C5.8986,0.2512 -0.0004,6.8232 -0.0004,14.0152 L-0.0004,117.4022 C-0.0004,124.5882 5.8986,131.0152 12.3406,131.0152 L166.6016,131.0152 C173.0426,131.0152 178.9416,124.5882 178.9416,117.4022 C178.9416,90.8416499 178.9416,81.2257656 178.9416,72.6404844"/>
      </g>
      <g transform="translate(17 50.006)">
        <path stroke="#C1CDCD" stroke-linecap="round" stroke-linejoin="round" stroke-width="2.067" d="M45.2292,31.0311 L46.2292,31.0311"/>
        <path stroke="#C1CDCD" stroke-dasharray="2.026 5.065" stroke-linecap="round" stroke-linejoin="round" stroke-width="2.067" d="M51.2936,31.0311 L140.9386,31.0311"/>
        <path stroke="#C1CDCD" stroke-linecap="round" stroke-linejoin="round" stroke-width="2.067" d="M143.4713,31.0311 L144.4713,31.0311"/>
        <g transform="translate(36 2)">
          <path fill="#FFF" d="M0.7291,0.6981 L0.7291,93.6981"/>
          <path stroke="#C1CDCD" stroke-linecap="round" stroke-linejoin="round" stroke-width="4" d="M0.7291,0.6981 L0.7291,93.6981"/>
        </g>
        <g transform="translate(74 2)">
          <path fill="#FFF" d="M1.2292,0.6981 L1.2292,93.6981"/>
          <path stroke="#C1CDCD" stroke-linecap="round" stroke-linejoin="round" stroke-width="2.5" d="M1.2292,0.6981 L1.2292,93.6981"/>
        </g>
        <g transform="translate(111 2)">
          <path fill="#FFF" d="M0.7291,0.6981 L0.7291,93.6981"/>
          <path stroke="#C1CDCD" stroke-linecap="round" stroke-linejoin="round" stroke-width="2.5" d="M0.7291,0.6981 L0.7291,93.6981"/>
        </g>
        <path stroke="#C1CDCD" stroke-linecap="round" stroke-linejoin="round" stroke-width="4" d="M36.7291.6981L36.7291 46.6981M.7291 48.1981L144.2291 48.1981M.7291 11.1981L18.2291 11.1981"/>
        <g transform="translate(0 19)">
          <path fill="#FFF" d="M0.7291,1.1981 L15.2291,1.1981"/>
          <path stroke="#C1CDCD" stroke-linecap="round" stroke-linejoin="round" stroke-width="2.148" d="M0.7291,1.1981 L15.2291,1.1981"/>
        </g>
        <path stroke="#C1CDCD" stroke-linecap="round" stroke-linejoin="round" stroke-width="4" d="M0.7291,62.1981 L18.2291,62.1981"/>
        <g transform="translate(0 70)">
          <path fill="#FFF" d="M0.7291,1.1981 L15.2291,1.1981"/>
          <path stroke="#C1CDCD" stroke-linecap="round" stroke-linejoin="round" stroke-width="2.148" d="M0.7291,1.1981 L15.2291,1.1981"/>
        </g>
        <path stroke="#C1CDCD" stroke-dasharray="2 5" stroke-linecap="round" stroke-linejoin="round" stroke-width="2.067" d="M45.2292,15.8651 L60.2882,9.1981 L75.2292,15.8651 L85.5402,11.1981 L95.8692,15.8651 L103.5402,11.1981 L144.4712,11.1981"/>
        <path fill="#C1CDCD" d="M29.7291,11.1981 C29.7291,9.8181 28.6091,8.6981 27.2291,8.6981 C25.8491,8.6981 24.7291,9.8181 24.7291,11.1981 C24.7291,12.5811 25.8491,13.6981 27.2291,13.6981 C28.6091,13.6981 29.7291,12.5811 29.7291,11.1981"/>
      </g>
      <g transform="translate(41 58.006)">
        <mask id="empty-chart-b" fill="#fff">
          <use xlink:href="#empty-chart-a"/>
        </mask>
        <polygon fill="#C1CDCD" points="-11.771 18.198 18.229 18.198 18.229 -11.802 -11.771 -11.802" mask="url(#empty-chart-b)"/>
      </g>
      <path fill="#C1CDCD" d="M46.7291,112.2041 C46.7291,110.8241 45.6091,109.7041 44.2291,109.7041 C42.8491,109.7041 41.7291,110.8241 41.7291,112.2041 C41.7291,113.5871 42.8491,114.7041 44.2291,114.7041 C45.6091,114.7041 46.7291,113.5871 46.7291,112.2041"/>
      <g transform="translate(41 109.006)">
        <mask id="empty-chart-d" fill="#fff">
          <use xlink:href="#empty-chart-c"/>
        </mask>
        <polygon fill="#C1CDCD" points="-11.771 18.198 18.229 18.198 18.229 -11.802 -11.771 -11.802" mask="url(#empty-chart-d)"/>
      </g>
      <g stroke="#C1CDCD" stroke-linecap="round" stroke-linejoin="round" stroke-width="2.067" transform="translate(62 108.006)">
        <path d="M99.4713,25.0311 L98.4713,25.0311"/>
        <path stroke-dasharray="2.026 5.065" d="M93.4059,25.0311 L3.7609,25.0311"/>
        <path d="M1.2292,25.0311 L0.2292,25.0311"/>
        <path stroke-dasharray="2 5" d="M99.4713,9.8651 L84.4113,3.1981 L69.4713,9.8651 L59.1593,9.1981 L30.2293,9.1981 L15.5593,0.1981 L0.2293,5.1981"/>
      </g>
      <g transform="translate(149)">
        <path fill="#08CBD9" d="M30.034503,0.319626151 C45.6357225,1.09581431 57.6535455,14.3747744 56.8797952,29.9767148 C56.1005574,45.5730712 42.8260762,57.5956116 27.2193691,56.8194234 C11.6236372,56.0432352 -0.399673351,42.7642752 0.379564486,27.1623347 C1.15331473,11.5603943 14.4332835,-0.462146098 30.034503,0.319626151" transform="translate(0 7)"/>
        <path fill="#425765" fill-rule="nonzero" d="M32,57 C46.9116882,57 59,44.9116882 59,30 C59,15.0883118 46.9116882,3 32,3 C17.0883118,3 5,15.0883118 5,30 C5,44.9116882 17.0883118,57 32,57 Z M32,60 C15.4314575,60 2,46.5685425 2,30 C2,13.4314575 15.4314575,0 32,0 C48.5685425,0 62,13.4314575 62,30 C62,46.5685425 48.5685425,60 32,60 Z"/>
        <g fill="#FFF" transform="translate(15 18)">
          <path d="M16.3485196,16.2824567 L23.7366978,22.9348022 C24.662584,23.7684739 24.8514506,25.0681432 24.1585432,25.8376949 C23.4656358,26.6072465 22.1533442,26.555267 21.227458,25.7215953 L13.4971046,18.7611538 L6.0522471,25.2328698 C5.17463865,25.9957632 3.91245713,25.9806573 3.23308576,25.19913 C2.55371439,24.4176026 2.71441729,23.1656022 3.59202574,22.4027088 L10.6893832,16.2330701 L3.67944035,9.92128921 C2.75355415,9.08761753 2.56468754,7.78794821 3.25759497,7.01839655 C3.9505024,6.24884488 5.26279392,6.30082443 6.18868013,7.13449611 L13.5407982,13.7543729 L20.2250509,7.94384067 C21.1026593,7.18094728 22.3648409,7.1960531 23.0442122,7.97758046 C23.7235836,8.75910782 23.5628807,10.0111082 22.6852723,10.7740016 L16.3485196,16.2824567 Z M25.5336136,3.7523907 C26.5677853,3.80384257 27.3644213,4.68407666 27.313131,5.7182962 C27.261477,6.75214558 26.3815398,7.54909428 25.3470043,7.49764241 C24.3131963,7.44619055 23.5161966,6.56595645 23.5678506,5.53173691 C23.6191409,4.49751738 24.4994418,3.70056868 25.5336136,3.7523907 Z"/>
        </g>
      </g>
      <path fill="#425765" d="M176,94.5 C176,92.567 177.567,91 179.5,91 C181.433,91 183,92.567 183,94.5 C183,96.433 181.433,98 179.5,98 C177.567,98 176,96.433 176,94.5"/>
    </g>
  </g>
</svg>
